<svg width="155" height="34" viewBox="0 0 155 34" fill="none" xmlns="http://www.w3.org/2000/svg">
<g clip-path="url(#clip0_1_100)">
<path d="M43.8358 25L49.4678 9.6H52.6358L58.2678 25H55.2758L54.0438 21.436H48.0378L46.7838 25H43.8358ZM48.8078 19.236H53.2738L51.0298 12.834L48.8078 19.236Z" fill="white"/>
<path d="M64.0919 25.264C62.9773 25.264 61.9946 25.022 61.1439 24.538C60.2933 24.054 59.6186 23.3793 59.1199 22.514C58.6359 21.6487 58.3939 20.6587 58.3939 19.544C58.3939 18.4293 58.6359 17.4393 59.1199 16.574C59.6186 15.7087 60.2933 15.034 61.1439 14.55C61.9946 14.066 62.9773 13.824 64.0919 13.824C65.4853 13.824 66.6586 14.1907 67.6119 14.924C68.5653 15.6427 69.1739 16.64 69.4379 17.916H66.4679C66.3213 17.388 66.0279 16.9773 65.5879 16.684C65.1626 16.376 64.6566 16.222 64.0699 16.222C63.2926 16.222 62.6326 16.5153 62.0899 17.102C61.5473 17.6887 61.2759 18.5027 61.2759 19.544C61.2759 20.5853 61.5473 21.3993 62.0899 21.986C62.6326 22.5727 63.2926 22.866 64.0699 22.866C64.6566 22.866 65.1626 22.7193 65.5879 22.426C66.0279 22.1327 66.3213 21.7147 66.4679 21.172H69.4379C69.1739 22.404 68.5653 23.394 67.6119 24.142C66.6586 24.89 65.4853 25.264 64.0919 25.264Z" fill="white"/>
<path d="M71.0134 25V14.088H73.4994L73.7413 15.562C74.0933 15.034 74.5554 14.616 75.1273 14.308C75.714 13.9853 76.3887 13.824 77.1514 13.824C78.838 13.824 80.0333 14.4767 80.7374 15.782C81.1334 15.1807 81.6613 14.704 82.3214 14.352C82.996 14 83.7294 13.824 84.5214 13.824C85.944 13.824 87.0367 14.2493 87.7994 15.1C88.562 15.9507 88.9434 17.1973 88.9434 18.84V25H86.1273V19.104C86.1273 18.1653 85.944 17.4467 85.5774 16.948C85.2254 16.4493 84.6754 16.2 83.9274 16.2C83.1647 16.2 82.5487 16.4787 82.0794 17.036C81.6247 17.5933 81.3974 18.3707 81.3974 19.368V25H78.5814V19.104C78.5814 18.1653 78.398 17.4467 78.0313 16.948C77.6647 16.4493 77.1 16.2 76.3373 16.2C75.5893 16.2 74.9807 16.4787 74.5114 17.036C74.0567 17.5933 73.8294 18.3707 73.8294 19.368V25H71.0134Z" fill="white"/>
<path d="M95.9949 25.264C94.8949 25.264 93.9195 25.0293 93.0689 24.56C92.2182 24.0907 91.5509 23.4307 91.0669 22.58C90.5829 21.7293 90.3409 20.7467 90.3409 19.632C90.3409 18.5027 90.5755 17.498 91.0449 16.618C91.5289 15.738 92.1889 15.056 93.0249 14.572C93.8755 14.0733 94.8729 13.824 96.0169 13.824C97.0875 13.824 98.0335 14.0587 98.8549 14.528C99.6762 14.9973 100.314 15.6427 100.769 16.464C101.238 17.2707 101.473 18.1727 101.473 19.17C101.473 19.3313 101.466 19.5 101.451 19.676C101.451 19.852 101.444 20.0353 101.429 20.226H93.1349C93.1935 21.0767 93.4869 21.744 94.0149 22.228C94.5575 22.712 95.2102 22.954 95.9729 22.954C96.5449 22.954 97.0215 22.8293 97.4029 22.58C97.7989 22.316 98.0922 21.9787 98.2829 21.568H101.143C100.938 22.2573 100.593 22.888 100.109 23.46C99.6395 24.0173 99.0529 24.4573 98.3489 24.78C97.6595 25.1027 96.8749 25.264 95.9949 25.264ZM96.0169 16.112C95.3275 16.112 94.7189 16.31 94.1909 16.706C93.6629 17.0873 93.3255 17.674 93.1789 18.466H98.6129C98.5689 17.7473 98.3049 17.1753 97.8209 16.75C97.3369 16.3247 96.7355 16.112 96.0169 16.112Z" fill="white"/>
<path d="M114.275 25.264C112.721 25.264 111.386 24.934 110.271 24.274C109.157 23.5993 108.299 22.668 107.697 21.48C107.096 20.2773 106.795 18.8913 106.795 17.322C106.795 15.7527 107.096 14.3667 107.697 13.164C108.299 11.9613 109.157 11.0227 110.271 10.348C111.386 9.67333 112.721 9.336 114.275 9.336C116.123 9.336 117.634 9.798 118.807 10.722C119.995 11.6313 120.736 12.9147 121.029 14.572H117.927C117.737 13.736 117.326 13.0833 116.695 12.614C116.079 12.13 115.258 11.888 114.231 11.888C112.809 11.888 111.694 12.372 110.887 13.34C110.081 14.308 109.677 15.6353 109.677 17.322C109.677 19.0087 110.081 20.336 110.887 21.304C111.694 22.2573 112.809 22.734 114.231 22.734C115.258 22.734 116.079 22.514 116.695 22.074C117.326 21.6193 117.737 20.996 117.927 20.204H121.029C120.736 21.788 119.995 23.0273 118.807 23.922C117.634 24.8167 116.123 25.264 114.275 25.264Z" fill="white"/>
<path d="M127.768 25.264C126.712 25.264 125.759 25.022 124.908 24.538C124.072 24.054 123.405 23.3867 122.906 22.536C122.422 21.6707 122.18 20.6733 122.18 19.544C122.18 18.4147 122.43 17.4247 122.928 16.574C123.427 15.7087 124.094 15.034 124.93 14.55C125.781 14.066 126.734 13.824 127.79 13.824C128.832 13.824 129.77 14.066 130.606 14.55C131.457 15.034 132.124 15.7087 132.608 16.574C133.107 17.4247 133.356 18.4147 133.356 19.544C133.356 20.6733 133.107 21.6707 132.608 22.536C132.124 23.3867 131.457 24.054 130.606 24.538C129.756 25.022 128.81 25.264 127.768 25.264ZM127.768 22.822C128.502 22.822 129.14 22.5507 129.682 22.008C130.225 21.4507 130.496 20.6293 130.496 19.544C130.496 18.4587 130.225 17.6447 129.682 17.102C129.14 16.5447 128.509 16.266 127.79 16.266C127.042 16.266 126.397 16.5447 125.854 17.102C125.326 17.6447 125.062 18.4587 125.062 19.544C125.062 20.6293 125.326 21.4507 125.854 22.008C126.397 22.5507 127.035 22.822 127.768 22.822Z" fill="white"/>
<path d="M134.95 25V14.088H137.458L137.722 16.134C138.118 15.43 138.653 14.8727 139.328 14.462C140.017 14.0367 140.824 13.824 141.748 13.824V16.794H140.956C140.34 16.794 139.79 16.8893 139.306 17.08C138.822 17.2707 138.441 17.6007 138.162 18.07C137.898 18.5393 137.766 19.192 137.766 20.028V25H134.95Z" fill="white"/>
<path d="M142.749 29.84V14.088H145.257L145.565 15.65C145.917 15.166 146.379 14.7407 146.951 14.374C147.537 14.0073 148.293 13.824 149.217 13.824C150.243 13.824 151.16 14.0733 151.967 14.572C152.773 15.0707 153.411 15.7527 153.881 16.618C154.35 17.4833 154.585 18.466 154.585 19.566C154.585 20.666 154.35 21.6487 153.881 22.514C153.411 23.3647 152.773 24.0393 151.967 24.538C151.16 25.022 150.243 25.264 149.217 25.264C148.395 25.264 147.677 25.11 147.061 24.802C146.445 24.494 145.946 24.0613 145.565 23.504V29.84H142.749ZM148.623 22.8C149.517 22.8 150.258 22.4993 150.845 21.898C151.431 21.2967 151.725 20.5193 151.725 19.566C151.725 18.6127 151.431 17.828 150.845 17.212C150.258 16.596 149.517 16.288 148.623 16.288C147.713 16.288 146.965 16.596 146.379 17.212C145.807 17.8133 145.521 18.5907 145.521 19.544C145.521 20.4973 145.807 21.282 146.379 21.898C146.965 22.4993 147.713 22.8 148.623 22.8Z" fill="white"/>
<path d="M0 0L17 8.5V17L0 8.5V0Z" fill="white"/>
<path d="M0 34L17 25.5V17L0 25.5V34Z" fill="white"/>
<path d="M17 34L34 25.5V17L17 25.5V34Z" fill="white"/>
<path d="M17 0L34 8.5V17L17 8.5V0Z" fill="white"/>
</g>
<defs>
<clipPath id="clip0_1_100">
<rect width="155" height="34" fill="white"/>
</clipPath>
</defs>
</svg>
