<svg width="155" height="34" viewBox="0 0 155 34" fill="none" xmlns="http://www.w3.org/2000/svg">
<path d="M59 27.3889C59 32.3441 56.2199 34 51.9167 34C42.9444 34 25 15.5833 25 7.08333C25 2.12811 27.7801 0 32.0833 0C41.2917 0 59 18.1806 59 27.3889Z" fill="white"/>
<path d="M31.6111 34C26.6559 34 25 31.2199 25 26.9167C25 17.9444 43.4167 0 51.9167 0C56.8719 0 59 2.78011 59 7.08333C59 16.2917 40.8194 34 31.6111 34Z" fill="white"/>
<path d="M118.853 8.88636L122.108 14.3877H122.234L125.505 8.88636H129.359L124.433 16.9571L129.469 25.0278H125.544L122.234 19.5186H122.108L118.798 25.0278H114.888L119.94 16.9571L114.983 8.88636H118.853Z" fill="white"/>
<path d="M101.397 25.0278V8.88636H112.274V11.7001H104.81V15.5463H111.714V18.36H104.81V22.2141H112.305V25.0278H101.397Z" fill="white"/>
<path d="M86.3613 25.0278V8.88636H92.7296C93.9539 8.88636 94.9969 9.12018 95.8586 9.58782C96.7203 10.0502 97.3771 10.6939 97.829 11.5188C98.2861 12.3385 98.5147 13.2843 98.5147 14.3562C98.5147 15.428 98.2835 16.3738 97.8211 17.1935C97.3587 18.0132 96.6888 18.6516 95.8113 19.1087C94.9391 19.5659 93.883 19.7944 92.6429 19.7944H88.5839V17.0595H92.0912C92.748 17.0595 93.2892 16.9466 93.7148 16.7206C94.1457 16.4894 94.4662 16.1715 94.6764 15.767C94.8918 15.3571 94.9995 14.8868 94.9995 14.3562C94.9995 13.8202 94.8918 13.3526 94.6764 12.9532C94.4662 12.5487 94.1457 12.236 93.7148 12.0153C93.284 11.7894 92.7375 11.6764 92.0755 11.6764H89.774V25.0278H86.3613Z" fill="white"/>
<path d="M71.8752 25.0278H68.2182L73.7904 8.88636H78.1883L83.7527 25.0278H80.0957L76.0524 12.5749H75.9263L71.8752 25.0278ZM71.6466 18.6831H80.2848V21.3471H71.6466V18.6831Z" fill="white"/>
</svg>
