<svg width="155" height="34" viewBox="0 0 155 34" fill="none" xmlns="http://www.w3.org/2000/svg">
<path d="M30.8168 8.5C30.5908 11.8056 29 17 29 17C29 17 27.427 11.3333 27.201 8.5C26.8278 3.8218 27.6529 0 29.0089 0C30.3649 0 31.137 3.81751 30.8168 8.5Z" fill="white"/>
<path d="M27.1832 25.5C27.4092 22.1944 29 17 29 17C29 17 30.573 22.6667 30.799 25.5C31.1722 30.1782 30.3471 34 28.9911 34C27.6351 34 26.863 30.1825 27.1832 25.5Z" fill="white"/>
<path d="M20.5 15.1832C23.8056 15.4092 29 17 29 17C29 17 23.3333 18.573 20.5 18.799C15.8218 19.1722 12 18.3471 12 16.9911C12 15.6351 15.8175 14.863 20.5 15.1832Z" fill="white"/>
<path d="M37.5 18.8168C34.1944 18.5908 29 17 29 17C29 17 34.6667 15.427 37.5 15.201C42.1782 14.8278 46 15.6529 46 17.0089C46 18.3649 42.1825 19.137 37.5 18.8168Z" fill="white"/>
<path d="M24.2743 9.7049C26.4519 12.2021 29 17 29 17C29 17 23.8808 14.1054 21.7175 12.2617C18.1456 9.21757 16.0267 5.9317 16.9855 4.97289C17.9443 4.01409 21.1896 6.16752 24.2743 9.7049Z" fill="white"/>
<path d="M33.7257 24.2951C31.5481 21.7979 29 17 29 17C29 17 34.1193 19.8946 36.2825 21.7383C39.8544 24.7824 41.9733 28.0683 41.0145 29.0271C40.0557 29.9859 36.8104 27.8325 33.7257 24.2951Z" fill="white"/>
<path d="M21.7049 21.7257C24.2021 19.5481 29 17 29 17C29 17 26.1054 22.1192 24.2617 24.2825C21.2176 27.8544 17.9317 29.9733 16.9729 29.0145C16.0141 28.0557 18.1675 24.8104 21.7049 21.7257Z" fill="white"/>
<path d="M36.2951 12.2743C33.7979 14.4519 29 17 29 17C29 17 31.8946 11.8808 33.7383 9.71748C36.7824 6.14563 40.0683 4.02667 41.0271 4.98548C41.9859 5.94428 39.8325 9.18962 36.2951 12.2743Z" fill="white"/>
<path d="M140.922 25.5V8.5H143.519V25.5H140.922Z" fill="white"/>
<path d="M131.971 25.7361C130.948 25.7361 130.019 25.4764 129.185 24.9569C128.366 24.4375 127.713 23.737 127.225 22.8556C126.753 21.9583 126.517 20.9588 126.517 19.8569C126.517 18.7394 126.753 17.7398 127.225 16.8583C127.713 15.9611 128.366 15.2528 129.185 14.7333C130.019 14.1981 130.948 13.9306 131.971 13.9306C132.837 13.9306 133.6 14.1194 134.261 14.4972C134.938 14.8593 135.473 15.363 135.867 16.0083C136.26 16.6537 136.457 17.3856 136.457 18.2042V21.4625C136.457 22.281 136.26 23.013 135.867 23.6583C135.489 24.3037 134.962 24.8153 134.285 25.1931C133.608 25.5551 132.837 25.7361 131.971 25.7361ZM132.396 23.2806C133.356 23.2806 134.127 22.9579 134.71 22.3125C135.308 21.6671 135.607 20.8407 135.607 19.8333C135.607 19.1565 135.473 18.5583 135.206 18.0389C134.938 17.5194 134.56 17.1181 134.072 16.8347C133.6 16.5356 133.041 16.3861 132.396 16.3861C131.766 16.3861 131.208 16.5356 130.72 16.8347C130.247 17.1181 129.87 17.5194 129.586 18.0389C129.319 18.5583 129.185 19.1565 129.185 19.8333C129.185 20.5102 129.319 21.1083 129.586 21.6278C129.87 22.1472 130.247 22.5565 130.72 22.8556C131.208 23.1389 131.766 23.2806 132.396 23.2806ZM135.442 25.5V22.4542L135.89 19.6917L135.442 16.9528V14.1667H138.039V25.5H135.442Z" fill="white"/>
<path d="M121.715 25.5V14.1667H124.312V25.5H121.715ZM123.014 12.0889C122.573 12.0889 122.203 11.9394 121.904 11.6403C121.621 11.3412 121.479 10.9713 121.479 10.5306C121.479 10.0898 121.621 9.71991 121.904 9.42083C122.203 9.12176 122.573 8.97222 123.014 8.97222C123.47 8.97222 123.84 9.12176 124.123 9.42083C124.407 9.71991 124.548 10.0898 124.548 10.5306C124.548 10.9713 124.407 11.3412 124.123 11.6403C123.84 11.9394 123.47 12.0889 123.014 12.0889Z" fill="white"/>
<path d="M114.492 25.5V9.44444H117.089V25.5H114.492ZM111.776 16.5278V14.1667H119.804V16.5278H111.776Z" fill="white"/>
<path d="M106.329 25.7361C105.7 25.7361 105.094 25.6574 104.511 25.5C103.929 25.3269 103.394 25.0907 102.906 24.7917C102.418 24.4769 101.993 24.0991 101.631 23.6583L103.284 22.0056C103.677 22.462 104.126 22.8083 104.629 23.0444C105.149 23.2648 105.731 23.375 106.377 23.375C106.959 23.375 107.4 23.2884 107.699 23.1153C107.998 22.9421 108.148 22.6903 108.148 22.3597C108.148 22.0134 108.006 21.7458 107.723 21.5569C107.439 21.3681 107.069 21.2107 106.613 21.0847C106.172 20.9431 105.7 20.8014 105.196 20.6597C104.708 20.5181 104.236 20.3292 103.779 20.0931C103.339 19.8412 102.977 19.5028 102.693 19.0778C102.41 18.6528 102.268 18.1019 102.268 17.425C102.268 16.7009 102.434 16.0792 102.764 15.5597C103.11 15.0403 103.591 14.6389 104.204 14.3556C104.834 14.0722 105.582 13.9306 106.448 13.9306C107.36 13.9306 108.163 14.0958 108.856 14.4264C109.564 14.7412 110.154 15.2213 110.627 15.8667L108.974 17.5194C108.643 17.1102 108.266 16.8032 107.841 16.5986C107.416 16.394 106.928 16.2917 106.377 16.2917C105.857 16.2917 105.456 16.3704 105.173 16.5278C104.889 16.6852 104.748 16.9134 104.748 17.2125C104.748 17.5273 104.889 17.7713 105.173 17.9444C105.456 18.1176 105.818 18.2671 106.259 18.3931C106.715 18.519 107.187 18.6606 107.675 18.8181C108.179 18.9597 108.651 19.1644 109.092 19.4319C109.548 19.6838 109.918 20.0301 110.202 20.4708C110.485 20.8958 110.627 21.4546 110.627 22.1472C110.627 23.2491 110.241 24.1227 109.47 24.7681C108.698 25.4134 107.652 25.7361 106.329 25.7361Z" fill="white"/>
<path d="M95.2753 25.7361C94.142 25.7361 93.1188 25.4843 92.2059 24.9806C91.3086 24.4611 90.5924 23.7528 90.0572 22.8556C89.5378 21.9583 89.2781 20.9509 89.2781 19.8333C89.2781 18.7157 89.5378 17.7162 90.0572 16.8347C90.5767 15.9375 91.2771 15.2292 92.1586 14.7097C93.0559 14.1903 94.0475 13.9306 95.1336 13.9306C96.1883 13.9306 97.117 14.1745 97.9197 14.6625C98.7383 15.1505 99.3758 15.8194 99.8322 16.6694C100.304 17.5194 100.541 18.4875 100.541 19.5736C100.541 19.7625 100.525 19.9593 100.493 20.1639C100.478 20.3528 100.446 20.5653 100.399 20.8014H91.0961V18.6764H99.0531L98.085 19.5264C98.0535 18.8338 97.9197 18.2514 97.6836 17.7792C97.4475 17.3069 97.1091 16.9449 96.6684 16.6931C96.2434 16.4412 95.716 16.3153 95.0864 16.3153C94.4253 16.3153 93.8508 16.4569 93.3628 16.7403C92.8748 17.0236 92.4971 17.425 92.2295 17.9444C91.9619 18.4481 91.8281 19.0542 91.8281 19.7625C91.8281 20.4708 91.9697 21.0926 92.2531 21.6278C92.5364 22.163 92.9378 22.5801 93.4572 22.8792C93.9767 23.1625 94.5748 23.3042 95.2517 23.3042C95.8341 23.3042 96.3693 23.2019 96.8572 22.9972C97.3609 22.7926 97.7859 22.4935 98.1322 22.1L99.785 23.7764C99.2341 24.4218 98.5651 24.9097 97.7781 25.2403C96.991 25.5708 96.1568 25.7361 95.2753 25.7361Z" fill="white"/>
<path d="M84.5222 25.5V8.5H87.1194V25.5H84.5222Z" fill="white"/>
<path d="M77.175 25.7361C76.0416 25.7361 75.0185 25.4843 74.1055 24.9806C73.2083 24.4611 72.4921 23.7528 71.9569 22.8556C71.4375 21.9583 71.1777 20.9509 71.1777 19.8333C71.1777 18.7157 71.4375 17.7162 71.9569 16.8347C72.4763 15.9375 73.1768 15.2292 74.0583 14.7097C74.9555 14.1903 75.9472 13.9306 77.0333 13.9306C78.0879 13.9306 79.0166 14.1745 79.8194 14.6625C80.6379 15.1505 81.2754 15.8194 81.7319 16.6694C82.2041 17.5194 82.4402 18.4875 82.4402 19.5736C82.4402 19.7625 82.4245 19.9593 82.393 20.1639C82.3773 20.3528 82.3458 20.5653 82.2986 20.8014H72.9958V18.6764H80.9527L79.9847 19.5264C79.9532 18.8338 79.8194 18.2514 79.5833 17.7792C79.3472 17.3069 79.0088 16.9449 78.568 16.6931C78.143 16.4412 77.6157 16.3153 76.9861 16.3153C76.325 16.3153 75.7504 16.4569 75.2625 16.7403C74.7745 17.0236 74.3967 17.425 74.1291 17.9444C73.8615 18.4481 73.7277 19.0542 73.7277 19.7625C73.7277 20.4708 73.8694 21.0926 74.1527 21.6278C74.4361 22.163 74.8375 22.5801 75.3569 22.8792C75.8763 23.1625 76.4745 23.3042 77.1513 23.3042C77.7338 23.3042 78.2689 23.2019 78.7569 22.9972C79.2606 22.7926 79.6856 22.4935 80.0319 22.1L81.6847 23.7764C81.1338 24.4218 80.4648 24.9097 79.6777 25.2403C78.8907 25.5708 78.0564 25.7361 77.175 25.7361Z" fill="white"/>
<path d="M64.0007 25.7361C62.8044 25.7361 61.6947 25.5236 60.6716 25.0986C59.6642 24.6579 58.7827 24.0519 58.0271 23.2806C57.2716 22.4935 56.6892 21.5884 56.2799 20.5653C55.8706 19.5264 55.666 18.4167 55.666 17.2361C55.666 16.0556 55.8706 14.9537 56.2799 13.9306C56.6892 12.8917 57.2716 11.9866 58.0271 11.2153C58.7827 10.444 59.6642 9.83797 60.6716 9.39723C61.6947 8.95648 62.8044 8.73611 64.0007 8.73611C65.3387 8.73611 66.4956 8.95648 67.4716 9.39723C68.4475 9.83797 69.3132 10.4361 70.0688 11.1917L68.2271 13.0333C67.7392 12.4982 67.141 12.081 66.4327 11.7819C65.7401 11.4829 64.9294 11.3333 64.0007 11.3333C63.1822 11.3333 62.4345 11.475 61.7577 11.7583C61.0808 12.0417 60.4906 12.4509 59.9868 12.9861C59.4989 13.5056 59.1211 14.1273 58.8535 14.8514C58.5859 15.5755 58.4521 16.3704 58.4521 17.2361C58.4521 18.1019 58.5859 18.8968 58.8535 19.6208C59.1211 20.3449 59.4989 20.9745 59.9868 21.5097C60.4906 22.0292 61.0808 22.4306 61.7577 22.7139C62.4345 22.9972 63.1822 23.1389 64.0007 23.1389C65.0081 23.1389 65.8581 22.9894 66.5507 22.6903C67.2591 22.3755 67.8572 21.9505 68.3452 21.4153L70.1868 23.2569C69.4313 24.0282 68.5419 24.6343 67.5188 25.075C66.4956 25.5157 65.323 25.7361 64.0007 25.7361Z" fill="white"/>
</svg>
