<svg width="155" height="34" viewBox="0 0 155 34" fill="none" xmlns="http://www.w3.org/2000/svg">
<path d="M0 2C0 2 0 16.7889 14.7889 16.7889C14.7889 2 0 2 0 2Z" fill="white"/>
<path d="M29.5778 2C29.5778 2 14.7889 2 14.7889 16.7889C29.5778 16.7889 29.5778 2 29.5778 2Z" fill="white"/>
<path d="M0 31.5778C0 31.5778 14.7889 31.5778 14.7889 16.7889C0 16.7889 0 31.5778 0 31.5778Z" fill="white"/>
<path d="M29.5778 31.5778C29.5778 31.5778 29.5778 16.7889 14.7889 16.7889C14.7889 31.5778 29.5778 31.5778 29.5778 31.5778Z" fill="white"/>
<path d="M42.7301 24.4074V8.76296H53.2718V11.49H46.0377V15.2178H52.7294V17.9449H46.0377V21.6803H53.3023V24.4074H42.7301Z" fill="white"/>
<path d="M60.3888 24.6366C59.187 24.6366 58.1532 24.3819 57.2875 23.8727C56.4268 23.3583 55.7648 22.6454 55.3013 21.7338C54.843 20.8222 54.6138 19.7731 54.6138 18.5866C54.6138 17.3847 54.8456 16.3306 55.309 15.4241C55.7775 14.5125 56.4421 13.8021 57.3027 13.2928C58.1634 12.7785 59.187 12.5213 60.3736 12.5213C61.3972 12.5213 62.2935 12.7072 63.0625 13.0789C63.8314 13.4507 64.44 13.9727 64.8881 14.6449C65.3363 15.3171 65.5833 16.1065 65.6291 17.013H62.5583C62.4717 16.4273 62.2425 15.9563 61.8708 15.5998C61.5041 15.2382 61.0229 15.0574 60.427 15.0574C59.9229 15.0574 59.4824 15.1949 59.1055 15.4699C58.7337 15.7398 58.4435 16.1345 58.2347 16.6539C58.0259 17.1734 57.9215 17.8023 57.9215 18.5407C57.9215 19.2894 58.0233 19.9259 58.227 20.4505C58.4358 20.975 58.7287 21.3748 59.1055 21.6498C59.4824 21.9248 59.9229 22.0623 60.427 22.0623C60.7988 22.0623 61.1324 21.9859 61.4277 21.8331C61.7282 21.6803 61.9752 21.4588 62.1687 21.1685C62.3673 20.8731 62.4972 20.5192 62.5583 20.1067H65.6291C65.5782 21.003 65.3337 21.7924 64.8958 22.4748C64.4629 23.1521 63.8645 23.6817 63.1007 24.0637C62.3368 24.4456 61.4328 24.6366 60.3888 24.6366Z" fill="white"/>
<path d="M70.2139 17.6241V24.4074H66.9597V8.76296H70.1222V14.7442H70.2597C70.5246 14.0516 70.9523 13.5093 71.5431 13.1171C72.1338 12.7199 72.8748 12.5213 73.766 12.5213C74.5808 12.5213 75.2912 12.6995 75.8972 13.056C76.5083 13.4074 76.982 13.9141 77.3181 14.5762C77.6593 15.2331 77.8273 16.0199 77.8222 16.9366V24.4074H74.5681V17.5171C74.5732 16.794 74.3898 16.2312 74.0181 15.8289C73.6514 15.4266 73.1371 15.2255 72.475 15.2255C72.032 15.2255 71.6398 15.3197 71.2986 15.5081C70.9625 15.6965 70.6977 15.9715 70.5042 16.3331C70.3158 16.6896 70.219 17.1199 70.2139 17.6241Z" fill="white"/>
<path d="M84.9317 24.6366C83.7451 24.6366 82.7189 24.3845 81.8532 23.8803C80.9926 23.3711 80.328 22.6632 79.8595 21.7567C79.3909 20.8451 79.1567 19.7884 79.1567 18.5866C79.1567 17.3745 79.3909 16.3153 79.8595 15.4088C80.328 14.4972 80.9926 13.7894 81.8532 13.2852C82.7189 12.7759 83.7451 12.5213 84.9317 12.5213C86.1183 12.5213 87.1419 12.7759 88.0025 13.2852C88.8682 13.7894 89.5354 14.4972 90.0039 15.4088C90.4724 16.3153 90.7067 17.3745 90.7067 18.5866C90.7067 19.7884 90.4724 20.8451 90.0039 21.7567C89.5354 22.6632 88.8682 23.3711 88.0025 23.8803C87.1419 24.3845 86.1183 24.6366 84.9317 24.6366ZM84.947 22.1157C85.4868 22.1157 85.9375 21.963 86.299 21.6574C86.6606 21.3468 86.9331 20.9241 87.1164 20.3894C87.3048 19.8546 87.399 19.2461 87.399 18.5637C87.399 17.8813 87.3048 17.2727 87.1164 16.738C86.9331 16.2032 86.6606 15.7806 86.299 15.4699C85.9375 15.1593 85.4868 15.0039 84.947 15.0039C84.402 15.0039 83.9437 15.1593 83.572 15.4699C83.2053 15.7806 82.9277 16.2032 82.7393 16.738C82.556 17.2727 82.4643 17.8813 82.4643 18.5637C82.4643 19.2461 82.556 19.8546 82.7393 20.3894C82.9277 20.9241 83.2053 21.3468 83.572 21.6574C83.9437 21.963 84.402 22.1157 84.947 22.1157Z" fill="white"/>
<path d="M99.183 8.76296L102.964 20.6491H103.109L106.898 8.76296H110.565L105.172 24.4074H100.909L95.5087 8.76296H99.183Z" fill="white"/>
<path d="M113.677 24.6289C112.929 24.6289 112.262 24.4991 111.676 24.2394C111.09 23.9745 110.627 23.585 110.286 23.0706C109.95 22.5512 109.782 21.9044 109.782 21.1303C109.782 20.4785 109.901 19.931 110.141 19.488C110.38 19.0449 110.706 18.6884 111.118 18.4185C111.531 18.1486 111.999 17.9449 112.524 17.8074C113.054 17.6699 113.609 17.5731 114.189 17.5171C114.872 17.4458 115.422 17.3796 115.839 17.3185C116.257 17.2523 116.56 17.1556 116.748 17.0282C116.937 16.9009 117.031 16.7125 117.031 16.463V16.4171C117.031 15.9333 116.878 15.559 116.572 15.2942C116.272 15.0294 115.844 14.897 115.289 14.897C114.704 14.897 114.238 15.0269 113.891 15.2866C113.545 15.5412 113.316 15.862 113.204 16.2491L110.194 16.0046C110.347 15.2917 110.647 14.6755 111.095 14.156C111.544 13.6315 112.122 13.2292 112.829 12.9491C113.542 12.6639 114.367 12.5213 115.304 12.5213C115.956 12.5213 116.58 12.5977 117.176 12.7505C117.777 12.9032 118.309 13.14 118.772 13.4609C119.241 13.7817 119.61 14.1942 119.88 14.6984C120.15 15.1975 120.285 15.7958 120.285 16.4935V24.4074H117.199V22.7803H117.107C116.919 23.147 116.667 23.4704 116.351 23.7505C116.035 24.0255 115.656 24.2419 115.213 24.3998C114.77 24.5525 114.258 24.6289 113.677 24.6289ZM114.609 22.3831C115.088 22.3831 115.511 22.2889 115.877 22.1005C116.244 21.9069 116.532 21.6472 116.741 21.3213C116.949 20.9954 117.054 20.6262 117.054 20.2137V18.9685C116.952 19.0347 116.812 19.0958 116.634 19.1519C116.46 19.2028 116.264 19.2512 116.045 19.297C115.826 19.3377 115.607 19.3759 115.388 19.4116C115.169 19.4421 114.971 19.4701 114.793 19.4956C114.411 19.5516 114.077 19.6407 113.792 19.763C113.507 19.8852 113.285 20.0507 113.127 20.2595C112.969 20.4632 112.891 20.7178 112.891 21.0234C112.891 21.4664 113.051 21.8051 113.372 22.0394C113.698 22.2685 114.11 22.3831 114.609 22.3831Z" fill="white"/>
<path d="M125.311 8.76296V24.4074H122.057V8.76296H125.311Z" fill="white"/>
<path d="M130.419 8.76296V24.4074H127.165V8.76296H130.419Z" fill="white"/>
<path d="M137.62 24.6366C136.413 24.6366 135.374 24.3921 134.503 23.9032C133.638 23.4093 132.971 22.7116 132.502 21.8102C132.033 20.9037 131.799 19.8317 131.799 18.5942C131.799 17.3873 132.033 16.328 132.502 15.4164C132.971 14.5049 133.63 13.7944 134.48 13.2852C135.336 12.7759 136.339 12.5213 137.49 12.5213C138.264 12.5213 138.985 12.6461 139.652 12.8956C140.324 13.14 140.91 13.5093 141.409 14.0032C141.913 14.4972 142.305 15.1185 142.585 15.8671C142.865 16.6106 143.005 17.4815 143.005 18.4796V19.3734H133.098V17.3567H139.942C139.942 16.8882 139.84 16.4731 139.637 16.1116C139.433 15.75 139.15 15.4674 138.789 15.2637C138.432 15.0549 138.017 14.9505 137.544 14.9505C137.05 14.9505 136.612 15.065 136.23 15.2942C135.853 15.5183 135.558 15.8213 135.344 16.2032C135.13 16.5801 135.02 17.0002 135.015 17.4637V19.381C135.015 19.9616 135.122 20.4632 135.336 20.8859C135.555 21.3086 135.863 21.6345 136.26 21.8637C136.658 22.0928 137.129 22.2074 137.674 22.2074C138.035 22.2074 138.366 22.1565 138.667 22.0546C138.967 21.9528 139.224 21.8 139.438 21.5963C139.652 21.3926 139.815 21.1431 139.927 20.8477L142.937 21.0463C142.784 21.7694 142.471 22.4009 141.997 22.9407C141.529 23.4755 140.923 23.8931 140.179 24.1935C139.441 24.4889 138.588 24.6366 137.62 24.6366Z" fill="white"/>
<path d="M146.07 28.8074C145.658 28.8074 145.271 28.7743 144.909 28.7081C144.553 28.647 144.257 28.5681 144.023 28.4713L144.756 26.0421C145.138 26.1593 145.482 26.2229 145.788 26.2331C146.098 26.2433 146.366 26.172 146.59 26.0192C146.819 25.8664 147.005 25.6067 147.147 25.24L147.338 24.7435L143.129 12.6741H146.551L148.981 21.2907H149.103L151.555 12.6741H155L150.44 25.6755C150.221 26.3069 149.923 26.8569 149.546 27.3255C149.174 27.7991 148.703 28.1632 148.133 28.4178C147.562 28.6775 146.875 28.8074 146.07 28.8074Z" fill="white"/>
</svg>
