<svg width="400" height="400" viewBox="0 0 400 400" fill="none" xmlns="http://www.w3.org/2000/svg">
<rect width="400" height="400" rx="100" fill="white"/>
<path d="M155 335C179.84 335 200 314.84 200 290V245H155C130.16 245 110 265.16 110 290C110 314.84 130.16 335 155 335Z" fill="#0ACF83"/>
<path d="M110 200C110 175.16 130.16 155 155 155H200V245H155C130.16 245 110 224.84 110 200Z" fill="#A259FF"/>
<path d="M110 110C110 85.16 130.16 65 155 65H200V155H155C130.16 155 110 134.84 110 110Z" fill="#F24E1E"/>
<path d="M200 65H245C269.84 65 290 85.16 290 110C290 134.84 269.84 155 245 155H200V65Z" fill="#FF7262"/>
<path d="M290 200C290 224.84 269.84 245 245 245C220.16 245 200 224.84 200 200C200 175.16 220.16 155 245 155C269.84 155 290 175.16 290 200Z" fill="#1ABCFE"/>
</svg>
