<svg width="400" height="400" viewBox="0 0 400 400" fill="none" xmlns="http://www.w3.org/2000/svg">
<rect width="400" height="400" rx="100" fill="white"/>
<path fill-rule="evenodd" clip-rule="evenodd" d="M200 75C128.727 75 71 132.582 71 203.674C71 260.613 107.926 308.705 159.204 325.754C165.654 326.88 168.072 323.02 168.072 319.642C168.072 316.586 167.911 306.453 167.911 295.677C135.5 301.628 127.115 287.795 124.535 280.557C123.084 276.858 116.795 265.438 111.312 262.382C106.797 259.969 100.347 254.018 111.151 253.857C121.31 253.697 128.566 263.186 130.985 267.047C142.595 286.509 161.139 281.04 168.556 277.662C169.685 269.298 173.071 263.669 176.78 260.452C148.077 257.235 118.085 246.137 118.085 196.919C118.085 182.926 123.084 171.345 131.308 162.338C130.018 159.121 125.502 145.932 132.597 128.239C132.597 128.239 143.401 124.861 168.072 141.428C178.392 138.533 189.358 137.085 200.323 137.085C211.288 137.085 222.253 138.533 232.573 141.428C257.244 124.7 268.048 128.239 268.048 128.239C275.143 145.932 270.628 159.121 269.338 162.338C277.561 171.345 282.56 182.765 282.56 196.919C282.56 246.298 252.406 257.235 223.704 260.452C228.38 264.473 232.411 272.193 232.411 284.257C232.411 301.467 232.25 315.299 232.25 319.642C232.25 323.02 234.669 327.041 241.119 325.754C292.074 308.705 329 260.452 329 203.674C329 132.582 271.273 75 200 75Z" fill="#1B1F23"/>
</svg>
