<svg width="400" height="400" viewBox="0 0 400 400" fill="none" xmlns="http://www.w3.org/2000/svg">
<rect width="400" height="400" rx="100" fill="white"/>
<path d="M117.455 114.109C125.626 120.755 128.691 120.248 144.033 119.223L288.68 110.528C291.746 110.528 289.195 107.464 288.174 106.955L264.15 89.5681C259.548 85.9905 253.414 81.8932 241.662 82.9181L101.601 93.1455C96.4932 93.6526 95.4728 96.2093 97.5072 98.259L117.455 114.109ZM126.139 147.858V300.227C126.139 308.415 130.226 311.479 139.426 310.973L298.392 301.764C307.596 301.257 308.621 295.623 308.621 288.972V137.626C308.621 130.985 306.07 127.403 300.435 127.914L134.314 137.626C128.184 138.142 126.139 141.212 126.139 147.858ZM283.07 156.031C284.089 160.638 283.07 165.24 278.46 165.758L270.801 167.285V279.773C264.15 283.352 258.018 285.397 252.908 285.397C244.727 285.397 242.678 282.839 236.55 275.173L186.449 196.431V272.617L202.303 276.198C202.303 276.198 202.303 285.397 189.512 285.397L154.251 287.445C153.227 285.397 154.251 280.289 157.828 279.265L167.029 276.712V175.981L154.253 174.956C153.229 170.349 155.781 163.708 162.942 163.192L200.769 160.64L252.908 240.407V169.842L239.615 168.315C238.594 162.683 242.678 158.594 247.79 158.087L283.07 156.031ZM89.8411 79.3405L235.527 68.5998C253.418 67.0636 258.02 68.0926 269.265 76.2703L315.768 108.994C323.443 114.621 326 116.153 326 122.287V301.764C326 313.01 321.908 319.663 307.598 320.68L138.414 330.91C127.673 331.422 122.56 329.889 116.935 322.726L82.6884 278.242C76.5518 270.054 74 263.927 74 256.76V97.2301C74 88.0318 78.0938 80.3592 89.8411 79.3405Z" fill="black"/>
</svg>
