<svg width="155" height="34" viewBox="0 0 155 34" fill="none" xmlns="http://www.w3.org/2000/svg">
<path d="M128 17.9491C128 18.7198 127.771 19.3042 127.312 19.7026C126.861 20.1009 126.264 20.3 125.519 20.3H120.285C120.484 21.0447 120.839 21.6724 121.35 22.1833C121.861 22.6855 122.597 22.9366 123.558 22.9366C123.939 22.9366 124.316 22.8587 124.688 22.7028C125.069 22.5383 125.424 22.3478 125.753 22.1314C126.091 21.9149 126.385 21.7287 126.636 21.5729C126.887 21.4083 127.078 21.3261 127.208 21.3261C127.459 21.3261 127.641 21.417 127.753 21.5988C127.866 21.772 127.922 21.9712 127.922 22.1963C127.922 22.9843 127.736 23.677 127.364 24.2744C127 24.8632 126.515 25.3525 125.909 25.7421C125.311 26.1318 124.653 26.4218 123.935 26.6123C123.225 26.8115 122.523 26.9111 121.831 26.9111C120.471 26.9111 119.272 26.6296 118.233 26.0668C117.194 25.504 116.38 24.716 115.791 23.7029C115.211 22.6812 114.921 21.4819 114.921 20.1052C114.921 18.6332 115.202 17.3517 115.765 16.2607C116.337 15.1696 117.155 14.3254 118.22 13.7279C119.285 13.1218 120.562 12.8188 122.051 12.8188C123.082 12.8188 124.047 13.0136 124.948 13.4032C125.857 13.7929 126.593 14.3687 127.156 15.1307C127.719 15.8927 128 16.8321 128 17.9491ZM120.051 18.2998C120.051 18.3951 120.051 18.4903 120.051 18.5856H121.402C121.731 18.5856 121.956 18.512 122.077 18.3648C122.199 18.2089 122.259 17.9751 122.259 17.6634C122.259 17.4556 122.233 17.1828 122.181 16.8451C122.129 16.5074 122.025 16.2044 121.87 15.9359C121.722 15.6675 121.506 15.5333 121.22 15.5333C120.96 15.5333 120.753 15.6415 120.597 15.858C120.441 16.0658 120.324 16.3299 120.246 16.6503C120.168 16.962 120.116 17.2694 120.09 17.5725C120.064 17.8755 120.051 18.118 120.051 18.2998Z" fill="white"/>
<path d="M98.3732 20.313C98.3732 18.9969 98.6286 17.7716 99.1395 16.6373C99.6504 15.4943 100.395 14.5722 101.373 13.8708C102.352 13.1694 103.547 12.8188 104.958 12.8188C105.807 12.8188 106.582 13.0006 107.283 13.3643V12.2603C107.283 11.8793 107.218 11.5935 107.088 11.403C106.967 11.2125 106.824 11.061 106.66 10.9484C106.504 10.8272 106.361 10.6973 106.231 10.5588C106.11 10.4116 106.049 10.1951 106.049 9.90938C106.049 9.55436 106.153 9.28594 106.361 9.1041C106.577 8.91361 106.833 8.76208 107.127 8.64951L109.946 7.51953C110.275 7.38099 110.612 7.25977 110.959 7.15586C111.305 7.05195 111.66 7 112.024 7C112.379 7 112.647 7.12555 112.829 7.37666C113.02 7.61911 113.115 7.90485 113.115 8.23389V22.7158C113.115 23.1401 113.145 23.4345 113.206 23.599C113.266 23.7636 113.444 24.0017 113.738 24.3134C113.911 24.4952 114.033 24.6511 114.102 24.781C114.171 24.9022 114.206 25.0927 114.206 25.3525C114.206 25.7248 114.085 26.0149 113.842 26.2227C113.6 26.4305 113.297 26.5344 112.933 26.5344H110.024C109.539 26.5344 109.071 26.3872 108.621 26.0928C108.179 25.7897 107.868 25.4087 107.686 24.9498C107.158 25.5213 106.556 25.9932 105.88 26.3655C105.214 26.7292 104.465 26.9111 103.633 26.9111C102.75 26.9111 101.975 26.7206 101.309 26.3396C100.65 25.9499 100.105 25.4347 99.672 24.794C99.2391 24.1445 98.9143 23.4302 98.6979 22.6509C98.4814 21.8716 98.3732 21.0923 98.3732 20.313ZM104.4 19.6636C104.4 19.9753 104.421 20.352 104.465 20.7936C104.517 21.2265 104.608 21.6551 104.737 22.0794C104.876 22.495 105.075 22.8457 105.335 23.1315C105.603 23.4085 105.95 23.5471 106.374 23.5471C106.703 23.5471 107.006 23.4345 107.283 23.2094V16.2736C107.136 16.1264 106.971 16.0095 106.79 15.923C106.608 15.8277 106.409 15.7801 106.192 15.7801C105.794 15.7801 105.473 15.9273 105.231 16.2217C104.997 16.5074 104.82 16.8668 104.698 17.2997C104.577 17.724 104.495 18.1526 104.452 18.5856C104.417 19.0185 104.4 19.3778 104.4 19.6636Z" fill="white"/>
<path d="M95.3594 12.8188C95.7144 12.8188 95.9872 12.94 96.1777 13.1824C96.3768 13.4249 96.4764 13.7149 96.4764 14.0526V22.6249C96.4764 22.8674 96.4851 23.1141 96.5024 23.3653C96.5284 23.6077 96.628 23.8198 96.8011 24.0017C97.0263 24.2441 97.2124 24.4346 97.3596 24.5732C97.5155 24.7117 97.5934 24.9715 97.5934 25.3525C97.5934 25.7335 97.4722 26.0279 97.2297 26.2357C96.996 26.4348 96.6929 26.5344 96.3206 26.5344H90.8005C90.4282 26.5344 90.1208 26.4348 89.8784 26.2357C89.6446 26.0365 89.5277 25.7421 89.5277 25.3525C89.5277 24.9801 89.6013 24.7204 89.7485 24.5732C89.8957 24.4173 90.0862 24.2268 90.32 24.0017C90.4931 23.8285 90.5884 23.612 90.6057 23.3523C90.6317 23.0925 90.6447 22.85 90.6447 22.6249V18.092C90.6447 17.9188 90.6317 17.7413 90.6057 17.5595C90.5797 17.369 90.5061 17.2088 90.3849 17.0789C90.3503 17.0356 90.307 17.001 90.255 16.975C90.2117 16.949 90.1728 16.9187 90.1381 16.8841C89.9476 16.6849 89.7701 16.5248 89.6056 16.4035C89.4498 16.2736 89.3718 16.0485 89.3718 15.7281C89.3718 15.3818 89.4801 15.1134 89.6965 14.9229C89.913 14.7324 90.1684 14.5808 90.4628 14.4683L93.2683 13.3383C93.5974 13.2084 93.9394 13.0915 94.2944 12.9876C94.6494 12.875 95.0044 12.8188 95.3594 12.8188ZM93.4112 12.7668C92.857 12.7668 92.2985 12.6845 91.7357 12.52C91.1729 12.3555 90.701 12.0828 90.32 11.7018C89.9476 11.3121 89.7615 10.7883 89.7615 10.1302C89.7615 9.47211 89.952 8.9569 90.333 8.58457C90.714 8.20358 91.1859 7.93516 91.7487 7.7793C92.3115 7.62344 92.8657 7.54551 93.4112 7.54551C93.9567 7.54551 94.5109 7.62344 95.0737 7.7793C95.6452 7.93516 96.1214 8.20358 96.5024 8.58457C96.892 8.9569 97.0869 9.47211 97.0869 10.1302C97.0869 10.7969 96.8964 11.3251 96.5154 11.7148C96.1344 12.0957 95.6582 12.3685 95.0867 12.533C94.5238 12.6889 93.9654 12.7668 93.4112 12.7668Z" fill="white"/>
<path d="M83.1628 15.0398C82.8684 15.0398 82.6043 15.1047 82.3705 15.2346C82.1367 15.3645 82.0198 15.5983 82.0198 15.9359C82.0198 16.213 82.0847 16.4252 82.2146 16.5724C82.3445 16.7196 82.5307 16.8451 82.7731 16.949C83.0329 17.0616 83.3056 17.1439 83.5914 17.1958C83.8771 17.2478 84.1542 17.304 84.4226 17.3647C85.2193 17.5378 85.9639 17.8322 86.6566 18.2479C87.3493 18.6548 87.9078 19.183 88.3321 19.8324C88.7651 20.4732 88.9815 21.2352 88.9815 22.1184C88.9815 23.3046 88.7131 24.2485 88.1763 24.9498C87.6394 25.6512 86.9251 26.1534 86.0332 26.4565C85.15 26.7595 84.1802 26.9111 83.1238 26.9111C82.8554 26.9111 82.4831 26.8764 82.0068 26.8072C81.5392 26.7379 81.1929 26.6426 80.9678 26.5214H80.9548C80.8682 26.4781 80.7253 26.4305 80.5262 26.3785C80.327 26.3266 80.1798 26.3006 80.0845 26.3006C79.8161 26.3006 79.5867 26.4045 79.3962 26.6123C79.2057 26.8288 78.9719 26.937 78.6948 26.937C78.3225 26.937 78.0281 26.8158 77.8116 26.5734C77.6038 26.3309 77.4436 26.0452 77.331 25.7161C77.2271 25.3784 77.1319 25.0667 77.0453 24.781C76.9847 24.5385 76.9154 24.3004 76.8375 24.0666C76.7595 23.8242 76.7206 23.5774 76.7206 23.3263C76.7206 22.876 76.8418 22.5124 77.0843 22.2353C77.3267 21.9582 77.6774 21.8196 78.1363 21.8196C78.5866 21.8196 78.9589 21.9192 79.2533 22.1184C79.5477 22.3089 79.8075 22.547 80.0326 22.8327C80.2664 23.1185 80.5002 23.4085 80.734 23.7029C80.9764 23.9887 81.2665 24.2311 81.6042 24.4303C81.9419 24.6208 82.3662 24.716 82.877 24.716C83.232 24.716 83.5005 24.6121 83.6823 24.4043C83.8641 24.1878 83.9551 23.9108 83.9551 23.5731C83.9551 23.0882 83.8252 22.7764 83.5654 22.6379C83.3056 22.4994 82.9723 22.3911 82.5653 22.3132C81.8207 22.166 81.1106 21.9928 80.4352 21.7937C79.7685 21.5945 79.1754 21.3218 78.6558 20.9754C78.145 20.6291 77.738 20.1701 77.4349 19.5986C77.1405 19.0272 76.9933 18.2912 76.9933 17.3906C76.9933 16.3256 77.2834 15.4597 77.8636 14.793C78.4437 14.1176 79.1797 13.6197 80.0716 13.2993C80.9721 12.9789 81.8856 12.8188 82.8121 12.8188C83.1671 12.8188 83.5135 12.8317 83.8512 12.8577C84.1975 12.8837 84.5395 12.953 84.8772 13.0655C84.9205 13.0742 85.0201 13.1088 85.176 13.1694C85.3405 13.2301 85.5007 13.2907 85.6565 13.3513C85.8124 13.4032 85.8903 13.4292 85.8903 13.4292C86.1761 13.4292 86.4185 13.3296 86.6177 13.1305C86.8255 12.9227 87.0723 12.8188 87.358 12.8188C87.7217 12.8188 87.9901 12.9616 88.1633 13.2474C88.3364 13.5245 88.4577 13.8492 88.5269 14.2215C88.6049 14.5938 88.6655 14.9099 88.7088 15.1696C88.7434 15.3688 88.778 15.5723 88.8127 15.7801C88.8473 15.9792 88.8646 16.1784 88.8646 16.3775C88.8646 16.7239 88.7824 17.0529 88.6179 17.3647C88.462 17.6677 88.1806 17.8193 87.7736 17.8193C87.3667 17.8193 87.0073 17.6807 86.6956 17.4036C86.3839 17.1179 86.0722 16.7932 85.7604 16.4295C85.4487 16.0658 85.0894 15.7455 84.6824 15.4684C84.2754 15.1826 83.7689 15.0398 83.1628 15.0398Z" fill="white"/>
<path d="M71.4079 26.9111C69.9273 26.9111 68.7583 26.569 67.9011 25.885C67.0525 25.1923 66.6282 24.0666 66.6282 22.508V16.8581C66.6282 16.4858 66.546 16.2087 66.3814 16.0269C66.2169 15.845 66.0264 15.6978 65.81 15.5853C65.5935 15.464 65.403 15.3212 65.2385 15.1566C65.074 14.9835 64.9917 14.7237 64.9917 14.3774C64.9917 14.0223 65.1173 13.7453 65.3684 13.5461C65.6195 13.3383 65.9139 13.2344 66.2516 13.2344H66.836C67.0871 13.2344 67.3339 13.1088 67.5764 12.8577C67.8275 12.598 68.0786 12.2776 68.3297 11.8966C68.5895 11.5156 68.8579 11.1389 69.135 10.7666C69.4207 10.3856 69.7238 10.0696 70.0441 9.81846C70.3645 9.55869 70.7152 9.42881 71.0962 9.42881C71.5291 9.42881 71.8668 9.55003 72.1093 9.79248C72.3517 10.0349 72.473 10.3726 72.473 10.8056V13.2344H75.4213C75.7503 13.2344 76.0317 13.3123 76.2655 13.4682C76.4993 13.624 76.6162 13.8838 76.6162 14.2475C76.6162 14.7324 76.4604 15.1004 76.1486 15.3515C75.8456 15.6026 75.4776 15.7714 75.0446 15.858C74.6117 15.9359 74.2047 15.9749 73.8237 15.9749H72.473V21.1183C72.473 21.5426 72.5552 21.9452 72.7197 22.3262C72.8843 22.6985 73.2219 22.8847 73.7328 22.8847C74.0705 22.8847 74.3563 22.7894 74.59 22.5989C74.8325 22.3998 75.0576 22.205 75.2654 22.0145C75.4819 21.824 75.7114 21.7287 75.9538 21.7287C76.179 21.7287 76.3348 21.837 76.4214 22.0534C76.5166 22.2699 76.5643 22.4647 76.5643 22.6379C76.5643 23.5125 76.3002 24.2701 75.772 24.9109C75.2438 25.5516 74.5814 26.0452 73.7848 26.3915C72.9968 26.7379 72.2045 26.9111 71.4079 26.9111Z" fill="white"/>
<path d="M52.6523 26.9111C51.8298 26.9111 51.1414 26.7032 50.5872 26.2876C50.0417 25.8633 49.6347 25.3135 49.3663 24.6381C49.0979 23.9627 48.9637 23.2527 48.9637 22.508V18.092C48.9637 17.7716 48.9377 17.5465 48.8857 17.4166C48.8338 17.2781 48.6866 17.1006 48.4441 16.8841C48.2536 16.7109 48.0718 16.5507 47.8986 16.4035C47.7341 16.2477 47.6519 16.0225 47.6519 15.7281C47.6519 15.3904 47.7601 15.1263 47.9766 14.9358C48.2017 14.7367 48.4571 14.5808 48.7429 14.4683L51.6003 13.3383C51.938 13.1997 52.2757 13.0785 52.6134 12.9746C52.9597 12.8707 53.3191 12.8188 53.6914 12.8188C54.0464 12.8188 54.3192 12.9443 54.5097 13.1954C54.7002 13.4379 54.7954 13.7236 54.7954 14.0526V21.1053C54.7954 21.3477 54.8214 21.6075 54.8733 21.8846C54.934 22.1617 55.0465 22.3998 55.211 22.5989C55.3756 22.7894 55.6137 22.8847 55.9254 22.8847C56.2458 22.8847 56.5272 22.8154 56.7696 22.6769C57.0121 22.5297 57.2329 22.3522 57.432 22.1444V18.092C57.432 17.763 57.4017 17.5248 57.3411 17.3776C57.2892 17.2218 57.129 17.04 56.8606 16.8321C56.6614 16.6763 56.4882 16.5247 56.341 16.3775C56.1938 16.2303 56.1202 16.0139 56.1202 15.7281C56.1202 15.3904 56.2285 15.1263 56.4449 14.9358C56.6701 14.7367 56.9255 14.5808 57.2112 14.4683L60.0687 13.3383C60.4064 13.1997 60.7441 13.0785 61.0818 12.9746C61.4281 12.8707 61.7875 12.8188 62.1598 12.8188C62.5148 12.8188 62.7875 12.94 62.978 13.1824C63.1772 13.4249 63.2768 13.7149 63.2768 14.0526V22.6249C63.2768 22.8674 63.2854 23.1098 63.3028 23.3523C63.3287 23.5861 63.4283 23.8025 63.6015 24.0017C63.818 24.2355 64.0084 24.4303 64.173 24.5862C64.3375 24.742 64.4197 24.9974 64.4197 25.3525C64.4197 25.7421 64.3029 26.0365 64.0691 26.2357C63.8353 26.4348 63.5279 26.5344 63.1469 26.5344H60.1856C59.5275 26.5344 58.9473 26.2876 58.4451 25.7941C57.9516 25.3005 57.7048 24.729 57.7048 24.0796C57.2286 24.5385 56.709 24.9845 56.1462 25.4174C55.5834 25.8503 55.0032 26.2097 54.4058 26.4954C53.817 26.7725 53.2325 26.9111 52.6523 26.9111Z" fill="white"/>
<path d="M37.4555 8.02608C39.3085 8.02608 40.9407 8.41573 42.3521 9.19502C43.7721 9.96566 44.8805 11.0524 45.6771 12.4551C46.4823 13.8492 46.885 15.4814 46.885 17.3517C46.885 19.248 46.4997 20.9278 45.729 22.3911C44.9584 23.8458 43.8674 24.9888 42.456 25.82C41.0532 26.6426 39.3864 27.0539 37.4555 27.0539C35.4986 27.0539 33.8144 26.6556 32.403 25.859C30.9916 25.0537 29.9049 23.9281 29.143 22.4821C28.381 21.036 28 19.3475 28 17.4166C28 15.5636 28.4026 13.9314 29.2079 12.52C30.0218 11.1086 31.1388 10.009 32.5589 9.221C33.9789 8.42438 35.6111 8.02608 37.4555 8.02608ZM40.3129 21.3651C40.3129 19.997 40.1787 18.6678 39.9103 17.3777C39.841 17.0486 39.7284 16.6113 39.5726 16.0658C39.4167 15.5203 39.2176 14.9445 38.9751 14.3384C38.7413 13.7323 38.4686 13.1565 38.1568 12.6109C37.8538 12.0654 37.5161 11.6238 37.1438 11.2861C36.7801 10.9398 36.3904 10.7666 35.9748 10.7666C35.5332 10.7666 35.2172 10.9484 35.0267 11.3121C34.8448 11.6758 34.7323 12.0914 34.689 12.559C34.6543 13.0179 34.637 13.4032 34.637 13.715C34.637 14.7887 34.7236 15.8623 34.8968 16.936C35.0786 18.0011 35.3557 19.0402 35.728 20.0532C35.8319 20.3476 35.9878 20.7286 36.1956 21.1962C36.4121 21.6638 36.6675 22.1314 36.9619 22.5989C37.2563 23.0665 37.5724 23.4605 37.9101 23.7809C38.2564 24.1013 38.6114 24.2614 38.9751 24.2614C39.4167 24.2614 39.7284 24.0839 39.9103 23.7289C40.1008 23.3739 40.2133 22.9669 40.248 22.508C40.2913 22.0491 40.3129 21.6681 40.3129 21.3651Z" fill="white"/>
</svg>
