<svg width="155" height="34" viewBox="0 0 155 34" fill="none" xmlns="http://www.w3.org/2000/svg">
<path d="M121.209 26.3051V8.02542H145V11.986H126.826V15.185H141.458V19.1456H126.826V22.3445H145V26.3051H121.209Z" fill="white"/>
<path d="M97.808 26.3051C96.854 26.3051 95.9715 26.1359 95.1606 25.7973C94.3497 25.4588 93.7058 25.0018 93.2288 24.4264C92.7518 23.8509 92.5133 23.2246 92.5133 22.5476V20.8466H98.0584V22.3445H112.655V19.1456H97.808C96.854 19.1456 95.9715 18.9763 95.1606 18.6378C94.3497 18.2993 93.7058 17.8508 93.2288 17.2922C92.7518 16.7167 92.5133 16.082 92.5133 15.3881V11.7829C92.5133 11.089 92.7518 10.4627 93.2288 9.90416C93.7058 9.32869 94.3497 8.8717 95.1606 8.53319C95.9715 8.19467 96.854 8.02542 97.808 8.02542H112.977C113.931 8.02542 114.801 8.19467 115.588 8.53319C116.399 8.8717 117.043 9.32869 117.52 9.90416C118.021 10.4627 118.271 11.089 118.271 11.7829V13.4839H112.655V11.986H98.0584V15.185H112.977C113.931 15.185 114.801 15.3542 115.588 15.6927C116.399 16.0312 117.043 16.4882 117.52 17.0637C118.021 17.6223 118.271 18.2485 118.271 18.9425V22.5476C118.271 23.2246 118.021 23.8509 117.52 24.4264C117.043 25.0018 116.399 25.4588 115.588 25.7973C114.801 26.1359 113.931 26.3051 112.977 26.3051H97.808Z" fill="white"/>
<path d="M65.8143 26.3051V8H71.3595V22.3445H91.5724V26.3051H65.8143Z" fill="white"/>
<path d="M42.4486 26.3051C41.4946 26.3051 40.6122 26.1359 39.8013 25.7973C38.9904 25.4588 38.3464 25.0018 37.8694 24.4264C37.3924 23.8509 37.1539 23.2246 37.1539 22.5476V8.02542H42.6991V22.3445H57.2953V8.02542H62.9121V22.5476C62.9121 23.2246 62.6616 23.8509 62.1608 24.4264C61.6838 25.0018 61.0398 25.4588 60.2289 25.7973C59.4419 26.1359 58.5713 26.3051 57.6173 26.3051H42.4486Z" fill="white"/>
<path d="M10 26.305V8.05074H30.4276C31.4055 8.05074 32.288 8.21999 33.075 8.55851C33.8859 8.89702 34.5299 9.35401 35.0069 9.92948C35.5077 10.505 35.7581 11.1312 35.7581 11.8082V16.5305C35.7581 17.2075 35.5077 17.8338 35.0069 18.4092C34.5299 18.9847 33.8859 19.4417 33.075 19.7802C32.288 20.1187 31.4055 20.288 30.4276 20.288L15.5452 20.3134V26.305H10ZM15.5452 16.3274H30.1414V11.9859H15.5452V16.3274Z" fill="white"/>
</svg>
