<svg width="155" height="34" viewBox="0 0 155 34" fill="none" xmlns="http://www.w3.org/2000/svg">
<path d="M27.6923 17.4359C25.0769 17.4359 22.4615 23.1026 18.1026 23.1026C14.7322 23.1026 12 20.3704 12 17C12 13.6296 14.7322 10.8974 18.1026 10.8974C22.4615 10.8974 25.0769 16.5641 27.6923 16.5641V17.4359Z" fill="white"/>
<path d="M30.3077 16.5641C32.9231 16.5641 35.5385 10.8974 39.8974 10.8974C43.2678 10.8974 46 13.6296 46 17C46 20.3704 43.2678 23.1026 39.8974 23.1026C35.5385 23.1026 32.9231 17.4359 30.3077 17.4359V16.5641Z" fill="white"/>
<path d="M29.4359 18.3077C29.4359 20.9231 35.1026 23.5385 35.1026 27.8974C35.1026 31.2678 32.3704 34 29 34C25.6297 34 22.8975 31.2678 22.8975 27.8974C22.8975 23.5385 28.5641 20.9231 28.5641 18.3077H29.4359Z" fill="white"/>
<path d="M28.5641 15.6923C28.5641 13.0769 22.8974 10.4615 22.8974 6.10256C22.8974 2.73221 25.6296 0 29 0C32.3703 0 35.1025 2.73221 35.1025 6.10256C35.1025 10.4615 29.4359 13.0769 29.4359 15.6923H28.5641Z" fill="white"/>
<path d="M27.6923 16.5641H30.3077V17.4359H27.6923V16.5641Z" fill="white"/>
<path d="M28.5641 18.3077V15.6923H29.4359V18.3077H28.5641Z" fill="white"/>
<path d="M127.946 24.4103V13.4732H130.837V15.4028H130.965C131.193 14.762 131.573 14.2565 132.104 13.8862C132.636 13.5159 133.272 13.3308 134.013 13.3308C134.763 13.3308 135.401 13.5183 135.928 13.8933C136.455 14.2636 136.806 14.7668 136.982 15.4028H137.096C137.319 14.7762 137.722 14.2754 138.306 13.9004C138.895 13.5207 139.59 13.3308 140.393 13.3308C141.413 13.3308 142.242 13.656 142.878 14.3063C143.518 14.9519 143.839 15.8681 143.839 17.0548V24.4103H140.813V17.6529C140.813 17.0453 140.651 16.5896 140.329 16.2858C140.006 15.982 139.602 15.8301 139.118 15.8301C138.567 15.8301 138.138 16.0057 137.829 16.357C137.521 16.7035 137.366 17.1616 137.366 17.7312V24.4103H134.426V17.5888C134.426 17.0524 134.271 16.6252 133.963 16.3071C133.659 15.9891 133.258 15.8301 132.759 15.8301C132.422 15.8301 132.119 15.9155 131.848 16.0864C131.582 16.2526 131.371 16.4875 131.214 16.7913C131.058 17.0904 130.979 17.4417 130.979 17.8452V24.4103H127.946Z" fill="white"/>
<path d="M122.486 19.7535V13.4732H125.52V24.4103H122.607V22.4236H122.494C122.247 23.0645 121.836 23.5795 121.262 23.9688C120.692 24.358 119.997 24.5527 119.175 24.5527C118.444 24.5527 117.801 24.3865 117.246 24.0542C116.69 23.7219 116.256 23.2496 115.943 22.6373C115.634 22.0249 115.477 21.2915 115.473 20.437V13.4732H118.506V19.8959C118.511 20.5415 118.684 21.0518 119.026 21.4268C119.368 21.8018 119.826 21.9893 120.4 21.9893C120.766 21.9893 121.107 21.9062 121.425 21.7401C121.743 21.5692 122 21.3176 122.194 20.9853C122.394 20.653 122.491 20.2424 122.486 19.7535Z" fill="white"/>
<path d="M113.497 13.4732V15.7518H106.91V13.4732H113.497ZM108.406 10.8529H111.439V21.0494C111.439 21.3295 111.482 21.5478 111.567 21.7045C111.653 21.8564 111.771 21.9632 111.923 22.0249C112.08 22.0866 112.26 22.1175 112.464 22.1175C112.607 22.1175 112.749 22.1056 112.892 22.0819C113.034 22.0534 113.143 22.032 113.219 22.0178L113.696 24.275C113.544 24.3224 113.331 24.377 113.055 24.4387C112.78 24.5052 112.445 24.5455 112.051 24.5598C111.32 24.5883 110.679 24.491 110.129 24.2678C109.583 24.0447 109.158 23.6982 108.854 23.2283C108.55 22.7583 108.401 22.1649 108.406 21.4481V10.8529Z" fill="white"/>
<path d="M98.2393 18.0873V24.4103H95.206V13.4732H98.0969V15.4028H98.2251C98.4672 14.7668 98.873 14.2636 99.4427 13.8933C100.012 13.5183 100.703 13.3308 101.515 13.3308C102.274 13.3308 102.936 13.4969 103.501 13.8292C104.066 14.1615 104.505 14.6362 104.819 15.2533C105.132 15.8657 105.289 16.5967 105.289 17.4464V24.4103H102.255V17.9876C102.26 17.3183 102.089 16.7961 101.743 16.4211C101.396 16.0413 100.919 15.8514 100.311 15.8514C99.9031 15.8514 99.5424 15.9393 99.2291 16.1149C98.9205 16.2905 98.6784 16.5469 98.5028 16.8839C98.3319 17.2162 98.2441 17.6173 98.2393 18.0873Z" fill="white"/>
<path d="M86.6935 24.6168C85.9956 24.6168 85.3738 24.4957 84.8279 24.2536C84.282 24.0068 83.85 23.6436 83.532 23.1642C83.2187 22.68 83.062 22.0771 83.062 21.3556C83.062 20.748 83.1736 20.2377 83.3967 19.8247C83.6198 19.4117 83.9236 19.0794 84.3081 18.8278C84.6926 18.5762 85.1293 18.3863 85.6183 18.2582C86.112 18.13 86.6294 18.0398 87.1705 17.9876C87.8066 17.9211 88.3193 17.8594 88.7086 17.8025C89.0978 17.7407 89.3803 17.6505 89.5559 17.5319C89.7315 17.4132 89.8193 17.2376 89.8193 17.005V16.9622C89.8193 16.5113 89.6769 16.1624 89.3921 15.9155C89.112 15.6687 88.7133 15.5453 88.1959 15.5453C87.65 15.5453 87.2156 15.6663 86.8928 15.9084C86.57 16.1458 86.3564 16.4448 86.252 16.8056L83.4465 16.5777C83.5889 15.9131 83.869 15.3388 84.2867 14.8546C84.7045 14.3656 85.2433 13.9906 85.9031 13.7295C86.5677 13.4637 87.3367 13.3308 88.2101 13.3308C88.8177 13.3308 89.3992 13.402 89.9546 13.5444C90.5148 13.6868 91.0108 13.9075 91.4428 14.2066C91.8795 14.5057 92.2237 14.8902 92.4753 15.3601C92.7269 15.8253 92.8527 16.3831 92.8527 17.0334V24.4103H89.976V22.8936H89.8906C89.7149 23.2354 89.4799 23.5368 89.1856 23.7979C88.8913 24.0542 88.5377 24.256 88.1247 24.4031C87.7117 24.5455 87.2346 24.6168 86.6935 24.6168ZM87.5622 22.5233C88.0084 22.5233 88.4024 22.4355 88.7442 22.2599C89.0859 22.0795 89.3541 21.8374 89.5488 21.5336C89.7434 21.2298 89.8407 20.8856 89.8407 20.5011V19.3405C89.7458 19.4022 89.6152 19.4592 89.4491 19.5114C89.2877 19.5588 89.1049 19.6039 88.9008 19.6467C88.6967 19.6846 88.4926 19.7202 88.2884 19.7535C88.0843 19.7819 87.8992 19.8081 87.733 19.8318C87.377 19.884 87.0661 19.9671 86.8003 20.081C86.5344 20.1949 86.3279 20.3492 86.1808 20.5438C86.0336 20.7337 85.96 20.9711 85.96 21.2559C85.96 21.6689 86.1096 21.9845 86.4086 22.2029C86.7124 22.4165 87.097 22.5233 87.5622 22.5233Z" fill="white"/>
<path d="M78.1151 19.7535V13.4732H81.1484V24.4103H78.2361V22.4236H78.1222C77.8753 23.0645 77.4647 23.5795 76.8903 23.9688C76.3207 24.358 75.6253 24.5527 74.804 24.5527C74.073 24.5527 73.4298 24.3865 72.8744 24.0542C72.319 23.7219 71.8846 23.2496 71.5713 22.6373C71.2628 22.0249 71.1061 21.2915 71.1014 20.437V13.4732H74.1347V19.8959C74.1395 20.5415 74.3127 21.0518 74.6545 21.4268C74.9963 21.8018 75.4544 21.9893 76.0288 21.9893C76.3943 21.9893 76.7361 21.9062 77.0541 21.7401C77.3722 21.5692 77.6285 21.3176 77.8231 20.9853C78.0225 20.653 78.1198 20.2424 78.1151 19.7535Z" fill="white"/>
<path d="M60.9779 19.3405H63.5982L64.9155 21.0352L66.2114 22.5447L68.6538 25.6065H65.7771L64.0967 23.5416L63.2351 22.3168L60.9779 19.3405ZM68.8745 17.1189C68.8745 18.7091 68.5731 20.062 67.9702 21.1776C67.3721 22.2931 66.5556 23.1452 65.5207 23.7338C64.4907 24.3177 63.3324 24.6096 62.046 24.6096C60.75 24.6096 59.587 24.3153 58.5569 23.7267C57.5268 23.1381 56.7127 22.286 56.1146 21.1704C55.5165 20.0549 55.2174 18.7044 55.2174 17.1189C55.2174 15.5286 55.5165 14.1758 56.1146 13.0602C56.7127 11.9447 57.5268 11.095 58.5569 10.5111C59.587 9.92245 60.75 9.62814 62.046 9.62814C63.3324 9.62814 64.4907 9.92245 65.5207 10.5111C66.5556 11.095 67.3721 11.9447 67.9702 13.0602C68.5731 14.1758 68.8745 15.5286 68.8745 17.1189ZM65.7486 17.1189C65.7486 16.0888 65.5943 15.2201 65.2858 14.5128C64.982 13.8055 64.5524 13.2691 63.997 12.9036C63.4416 12.538 62.7912 12.3553 62.046 12.3553C61.3007 12.3553 60.6503 12.538 60.0949 12.9036C59.5395 13.2691 59.1076 13.8055 58.799 14.5128C58.4952 15.2201 58.3433 16.0888 58.3433 17.1189C58.3433 18.149 58.4952 19.0177 58.799 19.725C59.1076 20.4323 59.5395 20.9687 60.0949 21.3342C60.6503 21.6997 61.3007 21.8825 62.046 21.8825C62.7912 21.8825 63.4416 21.6997 63.997 21.3342C64.5524 20.9687 64.982 20.4323 65.2858 19.725C65.5943 19.0177 65.7486 18.149 65.7486 17.1189Z" fill="white"/>
</svg>
