<svg width="400" height="400" viewBox="0 0 400 400" fill="none" xmlns="http://www.w3.org/2000/svg">
<rect width="400" height="400" rx="100" fill="white"/>
<path d="M125.088 175.145C111.718 175.145 109.138 186.565 109.138 199.925C109.138 213.285 111.718 223.526 125.088 223.526C138.457 223.526 159.661 248.57 161.712 199.335C163.785 149.577 138.457 175.145 125.088 175.145Z" fill="#FF6948"/>
<path d="M306.764 255.945C320.133 255.945 309.737 212.105 309.737 198.745C309.737 185.386 320.133 146.851 306.764 146.851C293.395 146.851 279.269 150.1 277.218 199.335C275.145 249.093 293.395 255.945 306.764 255.945Z" fill="#6248FF"/>
<path d="M330.75 131.199L329.05 127.801C326.5 123.554 323.101 120.157 318.85 117.608L223.65 63.2472C219.401 60.6989 214.3 59.8495 209.2 59H204.95C199.85 59 194.749 60.6989 190.5 63.2472L95.3 118.458C91.0512 121.006 87.65 124.404 85.0996 128.651L83.3995 132.048C81.6994 135.446 80 140.542 80 144.789V254.361C80 259.458 81.6994 264.554 83.3995 268.801L85.0996 272.199C87.65 276.446 91.0512 279.845 95.3 282.392L190.5 336.753C194.75 339.301 199.85 341 204.95 341H209.2C214.3 341 219.401 339.301 223.65 336.753L318.85 281.542C323.101 278.995 326.5 275.596 329.05 271.349L330.75 267.952C333.3 263.705 334.15 258.608 335 253.512V144.789C335 139.693 333.3 135.446 330.75 131.199Z" fill="black"/>
<path d="M330.75 131.199L329.05 127.801C326.5 123.554 323.101 120.157 318.85 117.608L223.65 63.2472C219.401 60.6989 214.3 59.8495 209.2 59H204.95C199.85 59 194.749 60.6989 190.5 63.2472L95.3 118.458C91.0512 121.006 87.65 124.404 85.0996 128.651L83.3995 132.048C81.6994 135.446 80 140.542 80 144.789V254.361C80 259.458 81.6994 264.554 83.3995 268.801L85.0996 272.199C87.65 276.446 91.0512 279.845 95.3 282.392L190.5 336.753C194.75 339.301 199.85 341 204.95 341H209.2C214.3 341 219.401 339.301 223.65 336.753L318.85 281.542C323.101 278.995 326.5 275.596 329.05 271.349L330.75 267.952C333.3 263.705 334.15 258.608 335 253.512V144.789C335 139.693 333.3 135.446 330.75 131.199Z" fill="url(#paint0_linear_3_3)"/>
<path d="M311.073 142.184L309.643 139.329C307.501 135.76 304.644 132.905 301.073 130.763L221.073 85.0813C217.502 82.9409 213.216 82.2261 208.929 81.5127H205.358C201.073 81.5127 196.786 82.9409 193.215 85.0813L113.216 131.478C109.644 133.618 106.787 136.474 104.644 140.042L103.215 142.897C101.787 145.753 100.359 150.036 100.359 153.605V245.682C100.359 249.965 101.787 254.247 103.215 257.816L104.644 260.671C106.787 264.241 109.644 267.096 113.216 269.237L193.215 314.919C196.786 317.06 201.073 318.487 205.358 318.487H208.929C213.216 318.487 217.502 317.06 221.073 314.919L301.073 268.523C304.644 266.382 307.501 263.526 309.643 259.958L311.073 257.103C313.216 253.534 313.93 249.25 314.644 244.968V153.605C314.644 149.321 313.216 145.753 311.073 142.184Z" fill="black"/>
<path d="M288.929 249.25L219.643 289.222V207.139L291.072 165.739V248.537L288.929 249.25Z" fill="white"/>
<path d="M206.071 105.066L207.499 104.353L208.928 105.066L278.928 145.039L207.499 186.439L136.071 145.039L206.071 105.066Z" fill="white"/>
<defs>
<linearGradient id="paint0_linear_3_3" x1="44.766" y1="158.338" x2="325.996" y2="195.811" gradientUnits="userSpaceOnUse">
<stop stop-color="#FF7448"/>
<stop offset="0.25" stop-color="#FF5E48"/>
<stop offset="0.5" stop-color="#FF4848"/>
<stop offset="0.75" stop-color="#B048A3"/>
<stop offset="1" stop-color="#6248FF"/>
</linearGradient>
</defs>
</svg>
