<svg width="400" height="400" viewBox="0 0 400 400" fill="none" xmlns="http://www.w3.org/2000/svg">
<rect width="400" height="400" rx="100" fill="white"/>
<path d="M121.726 235.619C121.726 251.23 108.974 263.982 93.3632 263.982C77.7524 263.982 65 251.23 65 235.619C65 220.008 77.7524 207.256 93.3632 207.256H121.726V235.619Z" fill="#E01E5A"/>
<path d="M136.018 235.619C136.018 220.008 148.77 207.256 164.381 207.256C179.992 207.256 192.744 220.008 192.744 235.619V306.637C192.744 322.248 179.992 335 164.381 335C148.77 335 136.018 322.248 136.018 306.637V235.619Z" fill="#E01E5A"/>
<path d="M164.381 121.726C148.77 121.726 136.018 108.974 136.018 93.3632C136.018 77.7524 148.77 65 164.381 65C179.992 65 192.744 77.7524 192.744 93.3632V121.726H164.381Z" fill="#36C5F0"/>
<path d="M164.381 136.018C179.992 136.018 192.744 148.77 192.744 164.381C192.744 179.992 179.992 192.744 164.381 192.744H93.3632C77.7524 192.744 65 179.992 65 164.381C65 148.77 77.7524 136.018 93.3632 136.018H164.381Z" fill="#36C5F0"/>
<path d="M278.274 164.381C278.274 148.77 291.026 136.018 306.637 136.018C322.248 136.018 335 148.77 335 164.381C335 179.992 322.248 192.744 306.637 192.744H278.274V164.381Z" fill="#2EB67D"/>
<path d="M263.982 164.381C263.982 179.992 251.23 192.744 235.619 192.744C220.008 192.744 207.256 179.992 207.256 164.381V93.3632C207.256 77.7524 220.008 65 235.619 65C251.23 65 263.982 77.7524 263.982 93.3632V164.381Z" fill="#2EB67D"/>
<path d="M235.619 278.274C251.23 278.274 263.982 291.026 263.982 306.637C263.982 322.248 251.23 335 235.619 335C220.008 335 207.256 322.248 207.256 306.637V278.274H235.619Z" fill="#ECB22E"/>
<path d="M235.619 263.982C220.008 263.982 207.256 251.23 207.256 235.619C207.256 220.008 220.008 207.256 235.619 207.256H306.637C322.248 207.256 335 220.008 335 235.619C335 251.23 322.248 263.982 306.637 263.982H235.619Z" fill="#ECB22E"/>
</svg>
