<svg width="155" height="34" viewBox="0 0 155 34" fill="none" xmlns="http://www.w3.org/2000/svg">
<path d="M113.382 7H127V9.76265H116.619V15.3437H126.191V18.0785H116.619V23.7712H127V26.5339H113.382V7Z" fill="white"/>
<path d="M94.4771 23.3805V10.1533L97.6304 7H106.783L109.881 10.0975V12.6648H106.644V11.2416L105.165 9.79055H99.3047L97.7141 11.3533V22.1806L99.3047 23.7433H105.165L106.644 22.2922V20.869H109.881V23.4363L106.783 26.5339H97.6304L94.4771 23.3805Z" fill="white"/>
<path d="M86.9253 7H90.1623V26.5339H86.9253V7Z" fill="white"/>
<path d="M60.7214 7H63.9864L66.6095 21.7062H66.6932L70.8511 7H73.4463L77.4647 21.7062H77.5764L80.1716 7H83.4365L79.4181 26.5339H76.2927L72.1906 11.8835H72.1069L67.8652 26.5339H64.7398L60.7214 7Z" fill="white"/>
<path d="M49.6661 9.76265H43.8059V7H58.7633V9.76265H52.9031V26.5339H49.6661V9.76265Z" fill="white"/>
<path d="M28.1116 22.4317L38.2134 12.9997V10.851L37.1251 9.79055H32.3254L31.237 10.851V12.6648H28V9.87427L30.8743 7H38.5762L41.4505 9.87427V13.9485L31.4324 23.1852V23.7712H41.5621V26.5339H28.1116V22.4317Z" fill="white"/>
</svg>
